<?xml version="1.0" encoding="UTF-8" standalone="no"?>
<svg
   version="1.1"
   viewBox="0 0 552.64749 542.48192"
   width="552.64746pt"
   height="542.48193pt"
   id="svg8"
   sodipodi:docname="favicon.svg"
   inkscape:version="1.3.2 (091e20e, 2023-11-25)"
   xmlns:inkscape="http://www.inkscape.org/namespaces/inkscape"
   xmlns:sodipodi="http://sodipodi.sourceforge.net/DTD/sodipodi-0.dtd"
   xmlns="http://www.w3.org/2000/svg"
   xmlns:svg="http://www.w3.org/2000/svg">
  <defs
     id="defs8" />
  <sodipodi:namedview
     id="namedview8"
     pagecolor="#ffffff"
     bordercolor="#000000"
     borderopacity="0.25"
     inkscape:showpageshadow="2"
     inkscape:pageopacity="0.0"
     inkscape:pagecheckerboard="0"
     inkscape:deskcolor="#d1d1d1"
     inkscape:document-units="pt"
     inkscape:zoom="0.39231736"
     inkscape:cx="295.67899"
     inkscape:cy="262.54255"
     inkscape:window-width="1920"
     inkscape:window-height="1027"
     inkscape:window-x="3979"
     inkscape:window-y="220"
     inkscape:window-maximized="0"
     inkscape:current-layer="svg8" />
  <path
     d="m 226.53813,0.85434019 c 44.77,4.14000001 88.17,22.78999981 120.2801,54.53999981 13.34,13.09 25.52,26.76 35.08,42.91 15.3199,26.01 24.2399,56.01 26.9399,86 0.22,5.61 0.9,11.43 0.22,17.02 -0.2,1.99 -1.78,2.88 -3.13,4.13 -7.02,5.64 -13.3899,11.87 -19.6199,18.36 -12.16,12.51 -24.42,24.91 -36.68,37.31 -6.75,6.75 -11.21,15.78 -14.24,24.74 -0.74,1.95 -1.13,3.79 -2.93,5.07 -10.9801,8.47 -20.9401,18.48 -30.8101,28.21 -21.3,21.03 -42.22,42.45 -63.51,63.49 -6.71,6.68 -12.96,13.8 -18.54,21.46 -1.84,2.94 -4.75,2.05 -7.73,2.3 -9.6,-0.03 -19.47,0.47 -29.01,-0.71 -30.32,-2.85 -59.67997,-12.97 -85.819968,-28.52 -1.34,-0.76 -2.77,-1.59 -4.24,-2.06 -3.42,0.56 -6.73,2.1 -10.01,3.2 -23.12994,8.17 -46.32994,16.31 -69.45994,24.5 -3.3600004,1.08 -7.1299984,1.61 -9.3099984,-1.81 -1.05,-3.08 0.76,-6.8 1.64,-9.77 8.2999984,-26.46 16.2899984,-53.08 24.5099984,-79.55 0.84,-2.03 -0.59,-3.44 -1.46,-5.16 -20.7300004,-32.93 -29.7099984,-72.52 -28.61999844,-111.18 1.82000004,-49.21 21.48999844,-97.46 55.85999844,-132.9 23.31996,-24.59 52.899938,-42.51 85.079908,-52.9199998 27.72,-8.73000001 56.63,-10.98 85.51,-8.66000001 z"
     fill="#2e9e51"
     id="path4"
     style="fill:#64c364;fill-opacity:1" />
  <path
     d="m 129.87816,86.18434 c 4.16997,0.02 8.15997,0.96 11.30997,3.82 3.2,2.75 4.36,6.38 5.83,10.18 5.2,14.05 10.51,28.07 15.88,42.07 0.61,1.64 1.22,3.37 1.48,5.09 0.14,3.02 -1.68,5.83 -3.26,8.26 -4.43,6.55 -8.99,13.02 -13.56,19.47 -1.36,2 -2.9,4.16 -3.64,6.48 -0.67,3.11 0.95,5.73 2.33,8.37 10.22,17.98 23.78,34.18 40.09,46.94 12.53,9.99 26.49,17.54 41.19,23.82 3.07,1.16 6.06,2.4 9.14,0.48 3.94,-2.49 7.15,-6.28 10.47,-9.53 4.71,-4.63 8.65,-10.04 13.52,-14.5 2.68,-2.33 5.62,-3.08 8.94,-1.6 14.92,6.17 29.76,12.26 44.68,18.4 4.08,1.63 6.4,4.28 7.41,8.57 2.0601,8.79 -1.32,16.54 -5.77,23.91 -7.65,12.75 -20.82,21.71 -35.37,24.58 -13.65,2.87 -27.68,0.76 -41.12,-2.25 -31.8,-7.81 -61.57,-24.25 -85.84,-46.15 -16.38,-14.26 -30.52997,-31.32 -42.76997,-49.21 -9.07,-13.47 -17.339998,-27.37 -21.949998,-43.05 -3.35,-11.63 -5,-24.31 -3.22,-36.34 1.39,-13.04 6.45,-25.67 15.879998,-34.98 7.3,-7.52 17.61,-13.31 28.35,-12.83 z"
     fill="#fdfcfb"
     id="path5" />
  <path
     d="m 504.03813,221.13434 c 16.49,6.3 30.61,18.41 39.08,33.93 6.99,12.6 10,26.97 9.47,41.31 -0.85,17.98 -7.74,35.52 -19.66,49.04 -5.5,6.14 -11.5,11.85 -17.26,17.75 -18.16,18.18 -35.97,36.69 -54.03,54.96 -13.27,13.13 -32.21,20.41 -50.79,20.32 -13.31,0.43 -26.8199,-3.97 -37.9599,-11.13 -7.38,-5.07 -15.09,-12.13 -18.4,-20.64 -3.97,-9.54 0.33,-21.32 8.55,-27.14 4.23,-2.95 11.13,-4.01 15.5,-0.87 4.3,3.4 6.31,8.74 11,11.98 10.4799,7.61 25.7099,8.86 37.0899,2.5 4.08,-2.26 7.12,-5.4 10.3,-8.73 21.28,-21.72 42.67,-43.33 63.95,-65.05 3.24,-3.28 6.13,-6.73 8.01,-10.99 5.93,-13.3 3.15,-29.63 -6.81,-40.25 -10.98,-12.04 -29.82,-15.36 -44.28,-7.84 -6.12,2.99 -9.91,7.7 -14.66,12.35 -8.18,8.16 -16.32,16.34 -24.5,24.5 -2.97,2.94 -5.74,6.02 -8.94,8.72 -6.16,-2.39 -12.33,-4.48 -18.9199,-5.35 -8.41,-1.56 -16.77,-1.13 -25.26,-0.99 2.26,-9.67 8.87,-16.99 15.68,-23.82 13.07,-12.93 26.2499,-25.74 39.3099,-38.69 11.3,-11.32 26.65,-18.34 42.41,-20.57 13.79,-1.94 28.11,-0.25 41.12,4.7 z"
     fill="#444d50"
     id="path6"
     style="fill:#fb7c94;fill-opacity:1" />
  <path
     d="m 367.82823,318.32434 c 9.97,-0.8 19.71,-0.48 29.2599,2.78 10.9,3.7 21.33,10.45 28.32,19.69 4.82,6.52 8.01,15.69 5.64,23.72 -1.71,6.75 -6.95,13.32 -13.85,15.16 -5.43,1.71 -11.83,-0.02 -16.25,-3.43 -4.3199,-3.24 -6.6999,-7.89 -10.7199,-11.25 -7.87,-6.47 -19.67,-7.34 -28.74,-3.02 -4.25,2.01 -7.29,5.19 -10.56,8.45 -20.92,21.08 -41.8601,42.14 -62.8201,63.18 -4.64,4.76 -9.37,8.54 -12.41,14.6 -4.58,8.52 -5.11,19.05 -1.8,28.1 4.87,13.16 17.53,23.36 31.4,25.45 8,1.49 16.6,-0.28 23.6201,-4.34 4.6,-2.64 8.13,-6.42 11.89,-10.12 12.35,-12.35 24.68,-24.66 37,-37.05 9.62,3.77 19.6899,6.07 30.0399,6.24 4.66,0.16 9.28,-0.15 13.93,-0.14 -2.39,10.04 -8.28,18.25 -15.78,25.14 -13.7799,13.57 -27.6599,27.01 -41.3399,40.67 -10.9,11.13 -26.17,17.65 -41.48,19.65 -15.3601,1.89 -31.0601,-0.13 -45.1801,-6.61 -26.33,-11.83 -45.53,-38.81 -46.59,-67.85 -1.05,-18.03 4.91,-36.15 16.26,-50.16 3.35,-3.95 7.15,-7.54 10.73,-11.3 22.18,-22.48 44.37,-44.96 66.6901,-67.29 11.33,-11.56 26.7,-18.58 42.74,-20.27 z"
     fill="#444d50"
     id="path7"
     style="fill:#fb7c94;fill-opacity:1" />
</svg>
