<?xml version="1.0" encoding="UTF-8" standalone="no"?>
<svg
   version="1.1"
   viewBox="0 0 2016.0858 1062.8314"
   width="2016.0857pt"
   height="1062.8314pt"
   id="svg8"
   sodipodi:docname="logo_dark.svg"
   inkscape:version="1.3.2 (091e20e, 2023-11-25)"
   xmlns:inkscape="http://www.inkscape.org/namespaces/inkscape"
   xmlns:sodipodi="http://sodipodi.sourceforge.net/DTD/sodipodi-0.dtd"
   xmlns="http://www.w3.org/2000/svg"
   xmlns:svg="http://www.w3.org/2000/svg">
  <defs
     id="defs8" />
  <sodipodi:namedview
     id="namedview8"
     pagecolor="#ffffff"
     bordercolor="#000000"
     borderopacity="0.25"
     inkscape:showpageshadow="2"
     inkscape:pageopacity="0.0"
     inkscape:pagecheckerboard="0"
     inkscape:deskcolor="#d1d1d1"
     inkscape:document-units="pt"
     inkscape:zoom="0.39231736"
     inkscape:cx="1455.4543"
     inkscape:cy="565.86841"
     inkscape:window-width="2240"
     inkscape:window-height="1387"
     inkscape:window-x="3752"
     inkscape:window-y="25"
     inkscape:window-maximized="0"
     inkscape:current-layer="svg8" />
  <path
     d="m 1092.6137,0.81564171 c 13.22,1.89999999 25.99,6.78999999 37.13,14.15000029 15.48,10.14 27.77,25.26 34.55,42.48 0.56,1.04 1.07,3.18 2.51,3.19 5.43,0.61 11.01,0.08 16.48,0.22 11.0001,0.14 22.0601,-0.36 33.0401,0.25 8.09,0.35 15.8,4.1 20.56,10.73 3.26,4.23 4.42,8.97 6.07,13.92 5.14,0.43 10.17,0.1 15.33,0.14 17.9999,0 35.9999,-0.03 53.9999,-0.01 17.72,-0.03 35.17,7.4 47.82,19.719998 11.24,10.83 18.82,25.37 21.02,40.85 0.94,7.78 0.55,15.13 0.65,22.97 0.44,82.59 0.35,165.19 0.51,247.78 -5.32,-2.55 -10.69,-4.88 -16.42,-6.36 -7.42,-2.11 -14.97,-2.78 -22.62,-3.43 -0.04,-78.99 0.01,-158 -0.04,-236.99 -0.05,-6.57 0.37,-12.69 -0.83,-19.19 -1.05,-6.41 -4.16,-12.54 -8.8,-17.1 -5.96,-6.01 -14.92,-8.98 -23.28,-8.71 -21.02,0 -42.04,-0.01 -63.0599,0 -1.85,0.2 -3.54,-0.44 -4.76,1.31 -0.53,8.52 0.12,17.14 -0.29,25.67 -1,11.49 -8.61,21.6 -19.55,25.39 -6.52,2.43 -12.56,1.6 -19.35,1.71 -83.3301,0.01 -166.6701,-0.03 -250.00007,0 -4.67998,-0.06 -9.79998,0.36 -14.34998,-0.74 -12.09996,-2.66 -21.91996,-13.9 -22.63996,-26.32 -0.25,-7.98 0.15,-15.98 -0.12,-23.96 -0.05,-1.98 -0.8,-3.15 -2.92,-3 -21.31,-0.13 -42.66,-0.02 -63.98,-0.06 -10.43,-0.49 -21.88,4.4 -27.72,13.27 -3.49,5.19 -5.34,11.47 -5.49,17.7 0.37,178.32 0.18,357.62 0.15,536.03 0.18,7.07 -0.86,14.84 1.61,21.44 3.66,11.15 13.64,19.88 25.29,21.64 5.67,0.63 11.47,0.36 17.17,0.43 66.67,0.06 133.32994,-0.13 199.99991,-0.5 5.62,-0.01 11.23,-0.08 16.84,0.13 0.9,1.46 1.78,2.95 2.57,4.48 4.53,8.95 10.65,17.16 17.61,24.37 3.37,3.5 7.19,6.47 10.54,9.98 -52.31,-0.1 -104.59,0.52 -156.89997,0.72 -34.21994,0.23 -68.45994,0.2 -102.67994,0.31 -9.53,-0.42 -19.1,-2.22 -27.84,-6.13 -14.1,-6.11 -26.22,-16.81 -33.81,-30.2 -6.35,-11.04 -9.68,-23.94 -9.37,-36.67 0.06,-27.33 -0.01,-54.67 0.02,-82 -0.09,-68.01 0.27,-135.99 -0.37,-204 -0.22,-86.33 -0.04,-172.67 -0.29,-259 -0.1,-11.68 2.66,-23.14 8.27,-33.39 11.85,-22.51 36.68,-38.569998 62.41,-37.729998 21.02,0.07 42.04,-0.04 63.06,0.06 1.6,-0.07 3.64,0.08 5.04,-0.81 1.26,-2.87 1.8,-6 3.18,-8.84 4.27,-9.16 13.56,-15.33 23.67996,-15.6 16.23998,-0.57 32.54998,0.11 48.78998,-0.26 2.63,-0.05 2.79,-1.96 3.79,-3.88 8.76997,-21.44 26.03997,-39.34 47.14997,-48.8700003 15.82,-7.41999999 33.4,-9.45 50.64,-7.28999999 z"
     fill="#444d50"
     id="path2"
     style="fill:#f94b6c;fill-opacity:1" />
  <path
     d="m 1074.7437,45.985642 c 7.27,-1.7 15.08,0.4 20.71,5.26 5.76,5.04 8.78,12.58 8,20.23 -0.64,10.26 -9.24,19.14 -19.27,20.8 -4.81,0.58 -9.59,0.36 -14.04,-1.72 -7.08,-3.05 -12.28,-9.71 -13.66,-17.28 -0.54,-4.5 -0.4,-8.97 1.45,-13.18 2.95,-7.18 9.24,-12.41 16.81,-14.11 z"
     fill="#fdfcfb"
     id="path3"
     style="fill:#0d1117;fill-opacity:1" />
  <path
     d="m 1095.9737,226.93564 c 44.77,4.14 88.17,22.79 120.2801,54.54 13.34,13.09 25.52,26.76 35.08,42.91 15.3199,26.01 24.2399,56.01 26.9399,86 0.22,5.61 0.9,11.43 0.22,17.02 -0.2,1.99 -1.78,2.88 -3.13,4.13 -7.02,5.64 -13.3899,11.87 -19.6199,18.36 -12.16,12.51 -24.42,24.91 -36.68,37.31 -6.75,6.75 -11.21,15.78 -14.24,24.74 -0.74,1.95 -1.13,3.79 -2.93,5.07 -10.9801,8.47 -20.9401,18.48 -30.8101,28.21 -21.3,21.03 -42.22,42.45 -63.51,63.49 -6.71,6.68 -12.96,13.8 -18.54,21.46 -1.84,2.94 -4.75,2.05 -7.73,2.3 -9.6,-0.03 -19.47,0.47 -29.01,-0.71 -30.32,-2.85 -59.67997,-12.97 -85.81997,-28.52 -1.34,-0.76 -2.77,-1.59 -4.24,-2.06 -3.42,0.56 -6.73,2.1 -10.01,3.2 -23.12994,8.17 -46.32994,16.31 -69.45994,24.5 -3.36,1.08 -7.13,1.61 -9.31,-1.81 -1.05,-3.08 0.76,-6.8 1.64,-9.77 8.3,-26.46 16.29,-53.08 24.51,-79.55 0.84,-2.03 -0.59,-3.44 -1.46,-5.16 -20.73,-32.93 -29.71,-72.52 -28.62,-111.18 1.82,-49.21 21.49,-97.46 55.86,-132.9 23.31996,-24.59 52.89994,-42.51 85.07991,-52.92 27.72,-8.73 56.63,-10.98 85.51,-8.66 z"
     fill="#2e9e51"
     id="path4"
     style="fill:#64c364;fill-opacity:1" />
  <path
     d="m 999.31373,312.26564 c 4.16997,0.02 8.15997,0.96 11.30997,3.82 3.2,2.75 4.36,6.38 5.83,10.18 5.2,14.05 10.51,28.07 15.88,42.07 0.61,1.64 1.22,3.37 1.48,5.09 0.14,3.02 -1.68,5.83 -3.26,8.26 -4.43,6.55 -8.99,13.02 -13.56,19.47 -1.36,2 -2.9,4.16 -3.64,6.48 -0.67,3.11 0.95,5.73 2.33,8.37 10.22,17.98 23.78,34.18 40.09,46.94 12.53,9.99 26.49,17.54 41.19,23.82 3.07,1.16 6.06,2.4 9.14,0.48 3.94,-2.49 7.15,-6.28 10.47,-9.53 4.71,-4.63 8.65,-10.04 13.52,-14.5 2.68,-2.33 5.62,-3.08 8.94,-1.6 14.92,6.17 29.76,12.26 44.68,18.4 4.08,1.63 6.4,4.28 7.41,8.57 2.0601,8.79 -1.32,16.54 -5.77,23.91 -7.65,12.75 -20.82,21.71 -35.37,24.58 -13.65,2.87 -27.68,0.76 -41.12,-2.25 -31.8,-7.81 -61.57,-24.25 -85.84,-46.15 -16.38,-14.26 -30.52997,-31.32 -42.76997,-49.21 -9.07,-13.47 -17.34,-27.37 -21.95,-43.05 -3.35,-11.63 -5,-24.31 -3.22,-36.34 1.39,-13.04 6.45,-25.67 15.88,-34.98 7.3,-7.52 17.61,-13.31 28.35,-12.83 z"
     fill="#fdfcfb"
     id="path5" />
  <path
     d="m 1373.4737,447.21564 c 16.49,6.3 30.61,18.41 39.08,33.93 6.99,12.6 10,26.97 9.47,41.31 -0.85,17.98 -7.74,35.52 -19.66,49.04 -5.5,6.14 -11.5,11.85 -17.26,17.75 -18.16,18.18 -35.97,36.69 -54.03,54.96 -13.27,13.13 -32.21,20.41 -50.79,20.32 -13.31,0.43 -26.8199,-3.97 -37.9599,-11.13 -7.38,-5.07 -15.09,-12.13 -18.4,-20.64 -3.97,-9.54 0.33,-21.32 8.55,-27.14 4.23,-2.95 11.13,-4.01 15.5,-0.87 4.3,3.4 6.31,8.74 11,11.98 10.4799,7.61 25.7099,8.86 37.0899,2.5 4.08,-2.26 7.12,-5.4 10.3,-8.73 21.28,-21.72 42.67,-43.33 63.95,-65.05 3.24,-3.28 6.13,-6.73 8.01,-10.99 5.93,-13.3 3.15,-29.63 -6.81,-40.25 -10.98,-12.04 -29.82,-15.36 -44.28,-7.84 -6.12,2.99 -9.91,7.7 -14.66,12.35 -8.18,8.16 -16.32,16.34 -24.5,24.5 -2.97,2.94 -5.74,6.02 -8.94,8.72 -6.16,-2.39 -12.33,-4.48 -18.9199,-5.35 -8.41,-1.56 -16.77,-1.13 -25.26,-0.99 2.26,-9.67 8.87,-16.99 15.68,-23.82 13.07,-12.93 26.2499,-25.74 39.3099,-38.69 11.3,-11.32 26.65,-18.34 42.41,-20.57 13.79,-1.94 28.11,-0.25 41.12,4.7 z"
     fill="#444d50"
     id="path6"
     style="fill:#f94b6c;fill-opacity:1" />
  <path
     d="m 1237.2638,544.40564 c 9.97,-0.8 19.71,-0.48 29.2599,2.78 10.9,3.7 21.33,10.45 28.32,19.69 4.82,6.52 8.01,15.69 5.64,23.72 -1.71,6.75 -6.95,13.32 -13.85,15.16 -5.43,1.71 -11.83,-0.02 -16.25,-3.43 -4.3199,-3.24 -6.6999,-7.89 -10.7199,-11.25 -7.87,-6.47 -19.67,-7.34 -28.74,-3.02 -4.25,2.01 -7.29,5.19 -10.56,8.45 -20.92,21.08 -41.8601,42.14 -62.8201,63.18 -4.64,4.76 -9.37,8.54 -12.41,14.6 -4.58,8.52 -5.11,19.05 -1.8,28.1 4.87,13.16 17.53,23.36 31.4,25.45 8,1.49 16.6,-0.28 23.6201,-4.34 4.6,-2.64 8.13,-6.42 11.89,-10.12 12.35,-12.35 24.68,-24.66 37,-37.05 9.62,3.77 19.6899,6.07 30.0399,6.24 4.66,0.16 9.28,-0.15 13.93,-0.14 -2.39,10.04 -8.28,18.25 -15.78,25.14 -13.7799,13.57 -27.6599,27.01 -41.3399,40.67 -10.9,11.13 -26.17,17.65 -41.48,19.65 -15.3601,1.89 -31.0601,-0.13 -45.1801,-6.61 -26.33,-11.83 -45.53,-38.81 -46.59,-67.85 -1.05,-18.03 4.91,-36.15 16.26,-50.16 3.35,-3.95 7.15,-7.54 10.73,-11.3 22.18,-22.48 44.37,-44.96 66.6901,-67.29 11.33,-11.56 26.7,-18.58 42.74,-20.27 z"
     fill="#444d50"
     id="path7"
     style="fill:#f94b6c;fill-opacity:1" />
  <path
     d="m 1382.1937,641.25564 c 0.1,20.41 0.09,40.79 0.09,61.19 -0.1,8.6 -1.46,17.39 -4.5,25.46 -5.56,15.12 -16.9,28.11 -30.66,36.37 -12.23,7.16 -26.69,10.69 -40.84,10.2 -17.48,0.2 -34.96,-0.1 -52.4299,0.38 3.16,-3.84 6.75,-7.09 10.24,-10.62 8.6299,-8.7 17.2799,-17.38 25.8799,-26.11 1.36,-1.17 2.37,-2.76 4.34,-2.69 5.33,-0.18 10.68,0.12 16.01,-0.07 10.34,-0.61 20.33,-4.78 26.72,-13.18 4.55,-5.75 5.84,-12.56 6.11,-19.72 0.19,-8.3 -0.1,-16.61 0.08,-24.92 3.42,-2.68 7.04,-4.94 10.23,-7.92 9.78,-9.22 18.79,-19.33 28.73,-28.37 z"
     fill="#444d50"
     id="path8"
     style="fill:#f94b6c;fill-opacity:1" />
  <path
     style="font-weight:500;font-size:155px;font-family:Rubik;-inkscape-font-specification:'Rubik Medium';fill:#f94b6c;stroke-width:5.26045;fill-opacity:1"
     d="m 24.025,1061.2814 q -2.325,0 -3.72,-1.24 -1.24,-1.395 -1.705,-3.41 L 0.15500013,957.27637 q 0,-0.465 -0.1549999964856,-0.775 0,-0.31 0,-0.465 0,-1.395 0.9299999964856,-2.325 1.08499997,-0.93 2.32499997,-0.93 H 16.895 q 3.875,0 4.34,3.1 L 34.1,1026.0964 48.05,980.68137 q 0.465,-1.24 1.55,-2.48 1.24,-1.395 3.565,-1.395 h 8.37 q 2.48,0 3.565,1.395 1.085,1.24 1.395,2.48 L 80.6,1025.9414 93.465,955.88137 q 0.465,-3.1 4.34,-3.1 h 13.64 q 1.24,0 2.17,0.93 0.93,0.93 0.93,2.325 0,0.155 0,0.465 0,0.31 -0.155,0.775 l -18.445,99.35503 q -0.31,2.015 -1.705,3.41 -1.395,1.24 -3.72,1.24 H 80.135 q -2.325,0 -3.72,-1.24 -1.24,-1.24 -1.705,-2.635 l -17.36,-51.77 -17.36,51.77 q -0.62,1.395 -1.86,2.635 -1.24,1.24 -3.72,1.24 z m 112.375,0 q -1.55,0 -2.635,-0.93 -1.085,-1.085 -1.085,-2.79 V 956.65637 q 0,-1.705 1.085,-2.79 1.085,-1.085 2.635,-1.085 h 14.105 q 1.705,0 2.635,1.085 1.085,1.085 1.085,2.79 v 39.99 h 45.725 v -39.99 q 0,-1.705 1.085,-2.79 1.085,-1.085 2.635,-1.085 h 13.95 q 1.705,0 2.79,1.085 1.085,1.085 1.085,2.79 v 100.90503 q 0,1.55 -1.085,2.635 -1.085,1.085 -2.79,1.085 h -13.95 q -1.55,0 -2.635,-1.085 -1.085,-1.085 -1.085,-2.635 v -41.54 h -45.725 v 41.54 q 0,1.55 -1.085,2.635 -0.93,1.085 -2.635,1.085 z m 102.61001,0 q -1.24,0 -2.325,-0.93 -0.93,-0.93 -0.93,-2.325 0,-0.62 0.31,-1.395 l 37.355,-99.97503 q 0.465,-1.55 1.705,-2.635 1.395,-1.24 3.72,-1.24 h 16.895 q 2.325,0 3.565,1.24 1.24,1.085 1.86,2.635 l 37.355,99.97503 q 0.155,0.775 0.155,1.395 0,1.395 -0.93,2.325 -0.93,0.93 -2.17,0.93 h -13.485 q -2.17,0 -3.255,-0.93 -0.93,-1.085 -1.24,-2.015 l -7.285,-18.91 h -46.035 l -7.285,18.91 q -0.31,0.93 -1.395,2.015 -0.93,0.93 -3.1,0.93 z m 30.69,-39.68 h 35.185 l -17.67,-47.89503 z m 99.66512,39.68 q -1.55,0 -2.635,-1.085 -1.085,-1.085 -1.085,-2.635 v -85.71503 h -28.675 q -1.55,0 -2.635,-1.085 -1.085,-1.085 -1.085,-2.635 v -11.47 q 0,-1.705 1.085,-2.79 1.085,-1.085 2.635,-1.085 h 79.05 q 1.705,0 2.79,1.085 1.085,1.085 1.085,2.79 v 11.47 q 0,1.55 -1.085,2.635 -1.085,1.085 -2.79,1.085 h -28.52 v 85.71503 q 0,1.55 -1.085,2.635 -1.085,1.085 -2.79,1.085 z m 103.38488,1.55 q -14.415,0 -24.18,-4.185 -9.61,-4.34 -14.725,-11.16 -4.96,-6.975 -5.27,-14.57 0,-1.395 0.93,-2.325 0.93,-0.93 2.325,-0.93 h 13.795 q 2.015,0 2.945,0.93 1.085,0.775 1.86,2.015 0.93,2.945 3.565,5.89 2.635,2.79 7.13,4.65 4.65,1.86 11.625,1.86 11.16,0 16.585,-3.72 5.58,-3.72 5.58,-10.075 0,-4.495 -2.945,-7.13 -2.945,-2.79 -9.145,-4.96 -6.045,-2.325 -16.12,-4.805 -11.625,-2.79 -19.53,-6.665 -7.75,-4.03 -11.78,-10.07503 -3.875,-6.045 -3.875,-15.345 0,-8.99 4.805,-15.965 4.96,-6.975 13.95,-11.005 9.145,-4.03 21.7,-4.03 10.075,0 17.825,2.79 7.75,2.635 12.865,7.13 5.115,4.34 7.75,9.455 2.79,4.96 2.945,9.765 0,1.24 -0.93,2.325 -0.775,0.93 -2.325,0.93 h -14.415 q -1.24,0 -2.48,-0.62 -1.24,-0.62 -2.015,-2.325 -0.93,-4.805 -6.045,-8.215 -5.115,-3.41 -13.175,-3.41 -8.37,0 -13.485,3.1 -5.115,3.1 -5.115,9.61 0,4.34 2.48,7.285 2.635,2.79 8.215,4.96 5.735,2.17 15.035,4.65 13.175,2.94503 21.545,6.82003 8.37,3.875 12.245,9.92 3.875,5.89 3.875,15.035 0,10.23 -5.58,17.515 -5.425,7.13 -15.345,11.005 -9.92,3.875 -23.095,3.875 z m 53.47511,-1.55 q -1.24,0 -2.325,-0.93 -0.93,-0.93 -0.93,-2.325 0,-0.62 0.31,-1.395 l 37.355,-99.97503 q 0.465,-1.55 1.705,-2.635 1.395,-1.24 3.72,-1.24 h 16.895 q 2.325,0 3.565,1.24 1.24,1.085 1.86,2.635 l 37.355,99.97503 q 0.155,0.775 0.155,1.395 0,1.395 -0.93,2.325 -0.93,0.93 -2.17,0.93 h -13.485 q -2.17,0 -3.255,-0.93 -0.93,-1.085 -1.24,-2.015 l -7.285,-18.91 h -46.035 l -7.285,18.91 q -0.31,0.93 -1.395,2.015 -0.93,0.93 -3.1,0.93 z m 30.69,-39.68 h 35.185 l -17.67,-47.89503 z m 87.1101,39.68 q -1.55,0 -2.635,-1.085 -1.085,-1.085 -1.085,-2.635 V 956.65637 q 0,-1.705 1.085,-2.79 1.085,-1.085 2.635,-1.085 h 41.54 q 12.09,0 21.08,3.875 8.99,3.72 13.95,11.47 4.96,7.595 4.96,19.065 0,11.625 -4.96,19.22003 -4.96,7.44 -13.95,11.16 -8.99,3.72 -21.08,3.72 h -23.095 v 36.27 q 0,1.55 -1.085,2.635 -0.93,1.085 -2.635,1.085 z m 18.135,-57.195 h 22.63 q 8.99,0 13.795,-4.18503 4.805,-4.34 4.805,-12.71 0,-7.75 -4.495,-12.4 -4.495,-4.805 -14.105,-4.805 h -22.63 z m 84.01009,57.195 q -1.55,0 -2.635,-1.085 -1.085,-1.085 -1.085,-2.635 V 956.65637 q 0,-1.705 1.085,-2.79 1.085,-1.085 2.635,-1.085 h 41.54 q 12.09,0 21.08,3.875 8.99,3.72 13.95,11.47 4.96,7.595 4.96,19.065 0,11.625 -4.96,19.22003 -4.96,7.44 -13.95,11.16 -8.99,3.72 -21.08,3.72 h -23.095 v 36.27 q 0,1.55 -1.085,2.635 -0.93,1.085 -2.635,1.085 z m 18.135,-57.195 h 22.63 q 8.99,0 13.795,-4.18503 4.805,-4.34 4.805,-12.71 0,-7.75 -4.495,-12.4 -4.495,-4.805 -14.105,-4.805 h -22.63 z m 128.3403,57.195 q -2.325,0 -3.72,-1.24 -1.24,-1.395 -1.705,-3.41 l -18.445,-99.35503 q 0,-0.465 -0.155,-0.775 0,-0.31 0,-0.465 0,-1.395 0.93,-2.325 1.085,-0.93 2.325,-0.93 h 13.64 q 3.875,0 4.34,3.1 l 12.865,70.21503 13.95,-45.41503 q 0.465,-1.24 1.55,-2.48 1.24,-1.395 3.565,-1.395 h 8.37 q 2.48,0 3.565,1.395 1.085,1.24 1.395,2.48 l 14.105,45.26003 12.865,-70.06003 q 0.465,-3.1 4.34,-3.1 h 13.64 q 1.24,0 2.17,0.93 0.93,0.93 0.93,2.325 0,0.155 0,0.465 0,0.31 -0.155,0.775 l -18.445,99.35503 q -0.31,2.015 -1.705,3.41 -1.395,1.24 -3.72,1.24 h -10.385 q -2.325,0 -3.72,-1.24 -1.24,-1.24 -1.705,-2.635 l -17.36,-51.77 -17.36,51.77 q -0.62,1.395 -1.86,2.635 -1.24,1.24 -3.72,1.24 z m 112.37499,0 q -1.55,0 -2.635,-1.085 -1.085,-1.085 -1.085,-2.635 V 956.65637 q 0,-1.705 1.085,-2.79 1.085,-1.085 2.635,-1.085 h 68.2 q 1.705,0 2.79,1.085 1.085,1.085 1.085,2.79 v 10.23 q 0,1.55 -1.085,2.635 -1.085,1.085 -2.79,1.085 h -50.995 v 27.435 h 47.585 q 1.705,0 2.79,1.085 1.085,0.93003 1.085,2.63503 v 9.61 q 0,1.705 -1.085,2.79 -1.085,0.93 -2.79,0.93 h -47.585 v 28.365 h 52.235 q 1.705,0 2.79,1.085 1.085,1.085 1.085,2.79 v 10.23 q 0,1.55 -1.085,2.635 -1.085,1.085 -2.79,1.085 z m 96.4099,0 q -1.55,0 -2.635,-1.085 -1.085,-1.085 -1.085,-2.635 V 956.65637 q 0,-1.705 1.085,-2.79 1.085,-1.085 2.635,-1.085 h 44.95 q 12.555,0 20.46,3.875 7.905,3.72 11.625,10.385 3.875,6.665 3.875,15.5 0,5.89 -2.17,10.385 -2.015,4.34 -5.115,7.13003 -2.945,2.79 -5.89,4.34 6.045,2.79 10.695,9.3 4.65,6.51 4.65,15.5 0,9.3 -4.185,16.585 -4.185,7.285 -12.4,11.47 -8.215,4.03 -20.305,4.03 z m 17.825,-16.43 h 25.885 q 8.37,0 12.71,-4.495 4.34,-4.65 4.34,-11.16 0,-6.82 -4.495,-11.315 -4.34,-4.495 -12.555,-4.495 h -25.885 z m 0,-47.58503 h 24.335 q 8.215,0 12.245,-3.875 4.185,-4.03 4.185,-10.385 0,-6.51 -4.185,-10.23 -4.03,-3.72 -12.245,-3.72 h -24.335 z m 162.1302,65.56503 q -14.415,0 -24.49,-4.96 -9.92,-5.115 -15.19,-14.415 -5.27,-9.455 -5.89,-22.63 -0.155,-6.355 -0.155,-13.64 0,-7.28503 0.155,-13.95003 0.62,-13.02 5.89,-22.475 5.425,-9.455 15.345,-14.415 10.075,-5.115 24.335,-5.115 10.54,0 18.91,2.79 8.37,2.79 14.26,7.75 5.89,4.805 9.145,11.315 3.255,6.51 3.41,14.105 0.155,1.395 -0.93,2.325 -0.93,0.93 -2.325,0.93 h -14.725 q -1.705,0 -2.79,-0.775 -1.085,-0.93 -1.55,-2.945 -2.48,-10.23 -8.525,-13.95 -6.045,-3.72 -15.035,-3.72 -10.385,0 -16.585,5.89 -6.2,5.735 -6.665,19.065 -0.465,12.71003 0,26.04003 0.465,13.33 6.665,19.22 6.2,5.735 16.585,5.735 8.99,0 15.035,-3.72 6.2,-3.875 8.525,-13.95 0.465,-2.17 1.55,-2.945 1.085,-0.775 2.79,-0.775 h 14.725 q 1.395,0 2.325,0.93 1.085,0.93 0.93,2.325 -0.155,7.595 -3.41,14.105 -3.255,6.51 -9.145,11.47 -5.89,4.805 -14.26,7.595 -8.37,2.79 -18.91,2.79 z m 105.865,0 q -13.795,0 -23.715,-4.495 -9.92,-4.65 -15.5,-14.105 -5.58,-9.61 -6.045,-23.87 -0.155,-6.665 -0.155,-13.175 0,-6.51 0.155,-13.33003 0.465,-14.105 6.2,-23.56 5.735,-9.455 15.655,-14.26 10.075,-4.805 23.405,-4.805 13.33,0 23.405,4.805 10.075,4.805 15.81,14.26 5.735,9.455 6.2,23.56 0.31,6.82003 0.31,13.33003 0,6.51 -0.31,13.175 -0.465,14.26 -6.045,23.87 -5.58,9.455 -15.655,14.105 -9.92,4.495 -23.715,4.495 z m 0,-17.825 q 10.075,0 16.43,-5.89 6.355,-6.045 6.82,-19.53 0.31,-6.82 0.31,-12.555 0,-5.89 -0.31,-12.55503 -0.31,-8.99 -3.41,-14.57 -2.945,-5.735 -8.06,-8.215 -5.115,-2.635 -11.78,-2.635 -6.51,0 -11.625,2.635 -5.115,2.48 -8.215,8.215 -2.945,5.58 -3.255,14.57 -0.155,6.66503 -0.155,12.55503 0,5.735 0.155,12.555 0.465,13.485 6.82,19.53 6.355,5.89 16.275,5.89 z m 69.75,16.275 q -1.55,0 -2.635,-1.085 -1.085,-1.085 -1.085,-2.635 V 956.65637 q 0,-1.705 1.085,-2.79 1.085,-1.085 2.635,-1.085 h 41.54 q 12.09,0 21.08,3.875 8.99,3.72 13.95,11.47 4.96,7.595 4.96,19.065 0,11.625 -4.96,19.22003 -4.96,7.44 -13.95,11.16 -8.99,3.72 -21.08,3.72 h -23.095 v 36.27 q 0,1.55 -1.085,2.635 -0.93,1.085 -2.635,1.085 z m 18.135,-57.195 h 22.63 q 8.99,0 13.795,-4.18503 4.805,-4.34 4.805,-12.71 0,-7.75 -4.495,-12.4 -4.495,-4.805 -14.105,-4.805 h -22.63 z m 109.4299,57.195 q -1.55,0 -2.635,-1.085 -1.085,-1.085 -1.085,-2.635 v -35.03 l -36.58,-64.79003 q -0.155,-0.31 -0.31,-0.775 -0.155,-0.465 -0.155,-0.93 0,-1.395 0.93,-2.325 0.93,-0.93 2.17,-0.93 h 13.795 q 1.86,0 2.945,0.93 1.24,0.93 1.705,2.015 l 26.35,45.10503 26.195,-45.10503 q 0.62,-1.085 1.705,-2.015 1.24,-0.93 3.1,-0.93 h 13.64 q 1.395,0 2.325,0.93 0.93,0.93 0.93,2.325 0,0.465 -0.155,0.93 0,0.465 -0.31,0.775 l -36.58,64.79003 v 35.03 q 0,1.55 -1.085,2.635 -1.085,1.085 -2.79,1.085 z m 105.4001,0 q -1.55,0 -2.635,-1.085 -1.085,-1.085 -1.085,-2.635 V 956.50137 q 0,-1.55 1.085,-2.635 1.085,-1.085 2.635,-1.085 h 14.415 q 1.55,0 2.635,1.085 1.085,1.085 1.085,2.635 v 86.33503 h 49.135 q 1.705,0 2.79,1.085 1.085,1.085 1.085,2.79 v 10.85 q 0,1.55 -1.085,2.635 -1.085,1.085 -2.79,1.085 z m 89.9,0 q -1.55,0 -2.635,-1.085 -1.085,-1.085 -1.085,-2.635 V 956.50137 q 0,-1.55 1.085,-2.635 1.085,-1.085 2.635,-1.085 h 14.57 q 1.705,0 2.635,1.085 1.085,1.085 1.085,2.635 v 101.06003 q 0,1.55 -1.085,2.635 -0.93,1.085 -2.635,1.085 z m 46.3449,0 q -1.55,0 -2.635,-1.085 -1.085,-1.085 -1.085,-2.635 V 956.65637 q 0,-1.705 1.085,-2.79 1.085,-1.085 2.635,-1.085 h 11.935 q 2.17,0 3.1,1.085 1.085,0.93 1.395,1.395 l 44.64,69.44003 v -68.04503 q 0,-1.705 0.93,-2.79 1.085,-1.085 2.79,-1.085 h 13.02 q 1.705,0 2.79,1.085 1.085,1.085 1.085,2.79 v 100.75003 q 0,1.705 -1.085,2.79 -1.085,1.085 -2.635,1.085 h -12.09 q -2.17,0 -3.1,-1.085 -0.93,-1.085 -1.395,-1.395 l -44.485,-67.89003 v 66.65003 q 0,1.55 -1.085,2.635 -1.085,1.085 -2.79,1.085 z m 109.5851,0 q -1.55,0 -2.635,-1.085 -1.085,-1.085 -1.085,-2.635 V 956.65637 q 0,-1.705 1.085,-2.79 1.085,-1.085 2.635,-1.085 h 13.64 q 1.705,0 2.79,1.085 1.085,1.085 1.085,2.79 v 36.27 l 35.03,-37.355 q 0.62,-0.775 2.015,-1.705 1.55,-1.085 4.03,-1.085 h 15.345 q 1.24,0 2.17,0.93 1.085,0.93 1.085,2.325 0,1.085 -0.62,1.86 l -42.625,46.81003 45.57,51.305 q 0.775,0.93 0.775,2.015 0,1.395 -1.085,2.325 -0.93,0.93 -2.17,0.93 h -15.965 q -2.635,0 -4.185,-1.085 -1.395,-1.24 -1.86,-1.705 l -37.51,-41.075 v 40.145 q 0,1.55 -1.085,2.635 -1.085,1.085 -2.79,1.085 z"
     id="text1"
     aria-label="WHATSAPP WEB COPY LINK" />
</svg>
